<svg width="37" height="86" viewBox="0 0 37 86" fill="none" xmlns="http://www.w3.org/2000/svg">
<path d="M10.032 67.12V84H8.528V43.904H17.792C23.051 43.904 26.6619 44.9196 28.9401 46.637L28.9459 46.6415L28.9518 46.6458C31.1699 48.2926 32.368 50.7363 32.368 54.32C32.368 57.0206 31.5464 59.1357 29.973 60.8156C28.3153 62.5423 26.0699 63.805 23.1309 64.5397L20.3666 65.2308L21.9561 67.5957L32.982 84H31.1739L19.668 66.0411L19.0779 65.12H17.984H12.032H10.032V67.12ZM12.032 44.384H10.032V46.384V62.768V64.768H12.032H18.496C22.0001 64.768 24.9994 64.0706 27.1645 62.3497L27.1694 62.3457C29.5022 60.4795 30.48 57.6464 30.48 54.32C30.48 51.1338 29.5501 48.3968 27.2613 46.6501C25.1222 45.0176 22.0508 44.384 18.432 44.384H12.032ZM32 17C32 25.2843 25.2843 32 17 32C8.71573 32 2 25.2843 2 17C2 8.71573 8.71573 2 17 2C25.2843 2 32 8.71573 32 17Z" fill="#008080" stroke="black" stroke-width="4"/>
</svg>
