<svg width="128" height="128" viewBox="0 0 128 128" fill="none" xmlns="http://www.w3.org/2000/svg">
<rect width="128" height="128" fill="#E5E5E5"/>
<rect width="128" height="128" fill="#4A893A"/>
<path d="M56.032 88.12V105H54.528V64.904H63.792C69.051 64.904 72.6619 65.9196 74.9401 67.637L74.9459 67.6415L74.9518 67.6458C77.1699 69.2926 78.368 71.7363 78.368 75.32C78.368 78.0206 77.5464 80.1357 75.973 81.8156C74.3153 83.5423 72.0699 84.805 69.1309 85.5397L66.3666 86.2308L67.9561 88.5957L78.982 105H77.1739L65.668 87.0411L65.0779 86.12H63.984H58.032H56.032V88.12ZM58.032 65.384H56.032V67.384V83.768V85.768H58.032H64.496C68.0001 85.768 70.9994 85.0706 73.1645 83.3497L73.1694 83.3457C75.5022 81.4795 76.48 78.6464 76.48 75.32C76.48 72.1338 75.5501 69.3968 73.2613 67.6501C71.1222 66.0176 68.0508 65.384 64.432 65.384H58.032ZM78 38C78 46.2843 71.2843 53 63 53C54.7157 53 48 46.2843 48 38C48 29.7157 54.7157 23 63 23C71.2843 23 78 29.7157 78 38Z" fill="#008080" stroke="white" stroke-width="4"/>
</svg>
